<?xml version="1.0" encoding="UTF-8" standalone="no"?>
<!DOCTYPE svg PUBLIC "-//W3C//DTD SVG 1.1//EN" "http://www.w3.org/Graphics/SVG/1.1/DTD/svg11.dtd">
<svg width="100%" height="100%" viewBox="0 0 1379 803" version="1.1" xmlns="http://www.w3.org/2000/svg" xmlns:xlink="http://www.w3.org/1999/xlink" xml:space="preserve" xmlns:serif="http://www.serif.com/" style="fill-rule:evenodd;clip-rule:evenodd;stroke-linejoin:round;stroke-miterlimit:2;">
    <g transform="matrix(1,0,0,1,-109,-88)">
        <g id="Fondo" transform="matrix(1.34668,0,0,1.34668,109,88)">
            <path d="M1020.923,288.466C1030.228,414.787 955.985,489.298 939.056,509.098C930.275,519.368 897.621,548.16 867.396,563.287C799.307,597.362 764.361,590.373 672.496,591.244C614.066,591.798 333.94,591.274 304.5,591.218C213.72,591.048 164.235,597.834 91.156,543.974C65.338,524.946 9.447,471.063 3.296,391.517C1.057,362.554 2.916,4.023 3.218,3.336C3.766,2.087 15.414,2.511 168.5,2.509C749.192,2.5 749.397,1.337 775.457,5.726C798.62,9.626 826.412,13.863 869.672,38.196C914.388,63.349 959.793,109.718 987.157,165.669C1010.812,214.036 1017.461,248.827 1020.923,288.466Z" style="fill:rgb(228,3,46);"/>
            <path d="M711.494,484.087C517.799,484.083 517.534,484.391 516.633,483.392C515.829,482.5 516.35,454.028 516.212,423.502C516.11,400.702 515.323,225.58 516.28,138.499C516.494,119.006 514.357,116.794 518.493,116.419C519.277,116.348 713.045,116.29 715.503,116.409C838.395,122.367 911.72,208.56 898.352,329.482C889.466,409.862 829.243,447.805 819.253,454.1C801.86,465.058 780.925,472.141 777.438,473.321C750.141,482.557 716.835,483.876 711.494,484.087Z" style="fill:rgb(252,252,252);fill-opacity:0.99;"/>
            <path d="M341.5,484.115C297.028,484.033 297.074,484.288 279.489,483.931C155.828,481.427 125.888,387.22 121.575,346.493C120.084,332.412 120.198,332.461 120.387,169.5C120.446,118.271 119.619,116.625 122.491,116.39C124.602,116.217 169.42,116.342 173.5,116.353C218.294,116.477 241.228,115.971 242.25,116.808C243.885,118.146 242.127,322.36 243.25,335.527C248.891,401.716 337.562,397.676 348.034,343.412C351.051,327.777 349.138,219.329 349.576,123.5C349.599,118.473 348.449,116.362 353.498,116.37C377.347,116.408 468.896,116.312 470.516,116.38C472.969,116.483 472.393,122.4 472.408,131.5C472.454,159.577 472.97,477.893 472.3,482.467C471.779,486.027 469.65,483.936 341.5,484.115Z" style="fill:rgb(252,252,252);fill-opacity:0.99;"/>
            <path d="M775.9,314.553C774.129,325.058 771.063,348.193 747.239,370.21C719.659,395.699 685.93,390.77 641.5,390.965C636.531,390.986 635.976,392.058 634.884,390.261C634.331,389.351 634.656,213.95 634.759,213.564C635.272,211.651 636.232,212.131 686.496,212.101C688.541,212.099 752.791,205.899 773.554,277.484C778.127,293.254 776.209,311.598 775.9,314.553Z" style="fill:rgb(228,3,46);fill-opacity:0.99;"/>
        </g>
    </g>
</svg>
